<svg xmlns="http://www.w3.org/2000/svg" width="155.646" height="146.066" viewBox="0 0 155.646 146.066">
  <g id="Raggruppa_9" data-name="Raggruppa 9" transform="translate(-492.142 -1636.871) rotate(11)">
    <g id="Raggruppa_8" data-name="Raggruppa 8" transform="translate(814 1502.37)">
      <g id="Raggruppa_2" data-name="Raggruppa 2" transform="translate(0 0)">
        <path id="Tracciato_4" data-name="Tracciato 4" d="M90.46,29.2H50.451A13.34,13.34,0,0,0,37.11,42.533V60.319A13.34,13.34,0,0,0,50.451,73.653H90.46A13.336,13.336,0,0,0,103.8,60.319V42.533A13.336,13.336,0,0,0,90.46,29.2ZM94.9,58.1a6.667,6.667,0,0,1-6.667,6.667H52.673A6.667,6.667,0,0,1,46.006,58.1V44.756a6.667,6.667,0,0,1,6.667-6.667H88.238A6.667,6.667,0,0,1,94.9,44.756Z" transform="translate(-1.546 -29.199)" fill="#7da2ba"/>
        <path id="Tracciato_5" data-name="Tracciato 5" d="M32.377,39.341H165.752V97.136a4.443,4.443,0,0,1-4.445,4.445H36.828a4.445,4.445,0,0,1-4.451-4.445V39.341Z" transform="translate(-27.932 27.343)" fill="#7da2ba"/>
        <path id="Tracciato_6" data-name="Tracciato 6" d="M50.46,32.58H155.213a18.753,18.753,0,0,1,18.752,18.752V81.479a4.443,4.443,0,0,1-4.445,4.445H36.146A4.443,4.443,0,0,1,31.7,81.479V51.332A18.754,18.754,0,0,1,50.46,32.58Z" transform="translate(-31.701 -10.35)" fill="#41556e"/>
        <rect id="Rettangolo_13" data-name="Rettangolo 13" width="17.783" height="28.897" rx="0.676" transform="translate(20.007 63.35)" fill="#f0cc68"/>
        <rect id="Rettangolo_14" data-name="Rettangolo 14" width="17.783" height="28.897" rx="0.676" transform="translate(102.476 63.643)" fill="#f0cc68"/>
      </g>
    </g>
  </g>
</svg>
