<svg xmlns="http://www.w3.org/2000/svg" xmlns:xlink="http://www.w3.org/1999/xlink" width="405.175" height="402.561" viewBox="0 0 405.175 402.561">
  <defs>
    <clipPath id="clip-path">
      <path id="Tracciato_1497" data-name="Tracciato 1497" d="M204.548,371.614c-2.545-1.51-6.751-7.037-7.254-8.93-3.344-12.6-11.136-35.774-4.951-48.085,1.056-2.1,11.56.047,13.764-1.351,7.03-.254,9.484.093,16.048-3.432,19.379-10.407,3.518-52.454,41.357-48.534,27.716,2.872,44.719,20.17,58.422-18.874s73.525-95.181,102.167-51.491c16.438,25.074-20.772,47.268-19.194,76.141,1.5,27.436-16.093,41.913-45.941,45.135s-21.514,19.171-23.787,43.651c-2.731,29.4-44.382,16.884-63.117,9.462C256.974,359.33,214.524,354.292,204.548,371.614Z" fill="#b1d6b9"/>
    </clipPath>
    <clipPath id="clip-path-2">
      <path id="Tracciato_1504" data-name="Tracciato 1504" d="M302.144,323.432c2.017,1.319,7.568,2.411,9.133,2.1,10.411-2.076,30.156-4.7,36.939-13.638,1.158-1.527-4.184-8.436-3.953-10.549-2.337-5.232-3.472-6.9-3.25-12.967.654-17.906,37.093-21.4,20.646-47.661-12.048-19.236-30.8-25.461-7.167-49.494s43.21-87.926.982-93.189c-24.234-3.02-27.108,32.155-48.787,41.363-20.6,8.751-24.873,26.812-16.516,49.793s-6.3,22.613-23.381,33.062c-20.522,12.55,3.583,38.513,15.734,49.549C292.31,280.688,311.23,309.92,302.144,323.432Z" fill="#7dba8b"/>
    </clipPath>
    <linearGradient id="linear-gradient" x1="18.389" y1="0.5" x2="19.389" y2="0.5" gradientUnits="objectBoundingBox">
      <stop offset="0" stop-color="#bae0e9"/>
      <stop offset="1" stop-color="#bae0e8"/>
    </linearGradient>
    <linearGradient id="linear-gradient-2" x1="12.379" y1="0.5" x2="13.379" y2="0.5" xlink:href="#linear-gradient"/>
    <linearGradient id="linear-gradient-3" x1="10.079" y1="0.5" x2="11.079" y2="0.5" xlink:href="#linear-gradient"/>
    <linearGradient id="linear-gradient-4" x1="10.458" y1="0.5" x2="11.458" y2="0.5" xlink:href="#linear-gradient"/>
    <linearGradient id="linear-gradient-5" x1="10.079" y1="0.5" x2="11.079" y2="0.5" xlink:href="#linear-gradient"/>
    <linearGradient id="linear-gradient-6" x1="8.392" y1="0.5" x2="9.392" y2="0.5" xlink:href="#linear-gradient"/>
    <linearGradient id="linear-gradient-8" x1="7.075" y1="0.5" x2="8.075" y2="0.5" xlink:href="#linear-gradient"/>
    <linearGradient id="linear-gradient-9" x1="7.292" y1="0.5" x2="8.292" y2="0.5" xlink:href="#linear-gradient"/>
    <linearGradient id="linear-gradient-10" x1="6.205" y1="0.5" x2="7.205" y2="0.5" xlink:href="#linear-gradient"/>
    <linearGradient id="linear-gradient-11" x1="-77.027" y1="-0.318" x2="-76.529" y2="0.309" gradientUnits="objectBoundingBox">
      <stop offset="0" stop-color="#2b2f78"/>
      <stop offset="1" stop-color="#201a41"/>
    </linearGradient>
    <linearGradient id="linear-gradient-12" x1="-216.492" y1="-12.36" x2="-220.479" y2="4.671" gradientUnits="objectBoundingBox">
      <stop offset="0" stop-color="#7accf2"/>
      <stop offset="1" stop-color="#4c509d"/>
    </linearGradient>
    <linearGradient id="linear-gradient-13" x1="-138.549" y1="-10.58" x2="-141.008" y2="3.357" xlink:href="#linear-gradient-12"/>
    <linearGradient id="linear-gradient-14" x1="-135.688" y1="-0.334" x2="-134.987" y2="0.994" xlink:href="#linear-gradient-11"/>
    <linearGradient id="linear-gradient-15" x1="282.344" y1="-28.093" x2="283.202" y2="-26.833" gradientUnits="objectBoundingBox">
      <stop offset="0" stop-color="#fcea38"/>
      <stop offset="1" stop-color="#d7315e"/>
    </linearGradient>
    <linearGradient id="linear-gradient-16" x1="573.373" y1="174.966" x2="571.634" y2="169.199" gradientUnits="objectBoundingBox">
      <stop offset="0" stop-color="#c33a18"/>
      <stop offset="1" stop-color="#621917"/>
    </linearGradient>
    <linearGradient id="linear-gradient-17" x1="283.347" y1="189.885" x2="282.657" y2="184.967" xlink:href="#linear-gradient-16"/>
    <linearGradient id="linear-gradient-18" x1="-62.066" y1="296.241" x2="-66.027" y2="341.337" xlink:href="#linear-gradient-16"/>
  </defs>
  <g id="Raggruppa_998" data-name="Raggruppa 998" transform="translate(-557.04 -4834.578)">
    <g id="asilo" transform="translate(533.912 4798.425)">
      <g id="Raggruppa_867" data-name="Raggruppa 867">
        <g id="Raggruppa_866" data-name="Raggruppa 866">
          <g id="Raggruppa_865" data-name="Raggruppa 865">
            <path id="Tracciato_1491" data-name="Tracciato 1491" d="M204.548,371.614c-2.545-1.51-6.751-7.037-7.254-8.93-3.344-12.6-11.136-35.774-4.951-48.085,1.056-2.1,11.56.047,13.764-1.351,7.03-.254,9.484.093,16.048-3.432,19.379-10.407,3.518-52.454,41.357-48.534,27.716,2.872,44.719,20.17,58.422-18.874s73.525-95.181,102.167-51.491c16.438,25.074-20.772,47.268-19.194,76.141,1.5,27.436-16.093,41.913-45.941,45.135s-21.514,19.171-23.787,43.651c-2.731,29.4-44.382,16.884-63.117,9.462C256.974,359.33,214.524,354.292,204.548,371.614Z" fill="#b1d6b9"/>
            <g id="Raggruppa_864" data-name="Raggruppa 864" clip-path="url(#clip-path)">
              <g id="Raggruppa_863" data-name="Raggruppa 863">
                <g id="Raggruppa_862" data-name="Raggruppa 862">
                  <path id="Tracciato_1492" data-name="Tracciato 1492" d="M194.687,339.875l-.03-.628c96.81-4.529,180.443-66,223.717-164.446l.577.253c-20.509,46.655-51.3,86.49-89.051,115.2C290.215,320.435,243.459,337.594,194.687,339.875Z" fill="#fcfdfe"/>
                  <path id="Tracciato_1493" data-name="Tracciato 1493" d="M335.446,368.2c-19.863-17.554-58.466-34.426-86.051-37.612l.073-.625c27.693,3.2,66.449,20.14,86.394,37.765Z" fill="#fcfdfe"/>
                  <path id="Tracciato_1494" data-name="Tracciato 1494" d="M213.681,338.769l-.2-.6c13.667-4.644,24.461-16.019,32.082-33.808,5.588-13.044,9.372-29.169,11.247-47.928l.626.063c-1.881,18.823-5.681,35.01-11.294,48.113C238.444,322.573,227.524,334.065,213.681,338.769Z" fill="#fcfdfe"/>
                  <path id="Tracciato_1495" data-name="Tracciato 1495" d="M335.1,285.97l-.232-.585c25.31-10.078,53.231-3.664,72.2,3.492l-.222.589C387.98,282.349,360.222,275.966,335.1,285.97Z" fill="#fcfdfe"/>
                  <path id="Tracciato_1496" data-name="Tracciato 1496" d="M379.132,241.806l-.559-.29c14.148-27.235,8.643-58.977,4.1-75.474l.607-.167C387.847,182.461,393.378,214.38,379.132,241.806Z" fill="#fcfdfe"/>
                </g>
              </g>
            </g>
          </g>
        </g>
      </g>
      <g id="Raggruppa_873" data-name="Raggruppa 873">
        <g id="Raggruppa_872" data-name="Raggruppa 872">
          <g id="Raggruppa_871" data-name="Raggruppa 871">
            <path id="Tracciato_1498" data-name="Tracciato 1498" d="M302.144,323.432c2.017,1.319,7.568,2.411,9.133,2.1,10.411-2.076,30.156-4.7,36.939-13.638,1.158-1.527-4.184-8.436-3.953-10.549-2.337-5.232-3.472-6.9-3.25-12.967.654-17.906,37.093-21.4,20.646-47.661-12.048-19.236-30.8-25.461-7.167-49.494s43.21-87.926.982-93.189c-24.234-3.02-27.108,32.155-48.787,41.363-20.6,8.751-24.873,26.812-16.516,49.793s-6.3,22.613-23.381,33.062c-20.522,12.55,3.583,38.513,15.734,49.549C292.31,280.688,311.23,309.92,302.144,323.432Z" fill="#7dba8b"/>
            <g id="Raggruppa_870" data-name="Raggruppa 870" clip-path="url(#clip-path-2)">
              <g id="Raggruppa_869" data-name="Raggruppa 869">
                <g id="Raggruppa_868" data-name="Raggruppa 868">
                  <path id="Tracciato_1499" data-name="Tracciato 1499" d="M328.892,319.252l.47-.205c-31.436-72.415-16.5-155.635,39.952-222.611l-.392-.33c-26.754,31.742-44.831,68.556-52.275,106.463A196.561,196.561,0,0,0,328.892,319.252Z" fill="#fcfdfe"/>
                  <path id="Tracciato_1500" data-name="Tracciato 1500" d="M257.662,226.489c19.965,8.224,46.158,30.4,58.388,49.423l.431-.277c-12.278-19.1-38.577-41.362-58.624-49.62Z" fill="#fcfdfe"/>
                  <path id="Tracciato_1501" data-name="Tracciato 1501" d="M322.883,304.965l.509-.066c-1.51-11.66,2.934-23.635,13.207-35.593,7.532-8.768,17.965-17.322,31.009-25.426l-.271-.435c-13.088,8.131-23.561,16.72-31.127,25.527C325.838,281.045,321.355,293.155,322.883,304.965Z" fill="#fcfdfe"/>
                  <path id="Tracciato_1502" data-name="Tracciato 1502" d="M317.913,197.23l.511-.04c-1.715-22.125-16.427-40.24-28.466-51.54l-.351.374C301.581,157.262,316.211,175.268,317.913,197.23Z" fill="#fcfdfe"/>
                  <path id="Tracciato_1503" data-name="Tracciato 1503" d="M334.4,149.181l.413.3c14.838-20.12,40.024-27.487,53.717-30.088l-.1-.5C374.67,121.508,349.344,128.92,334.4,149.181Z" fill="#fcfdfe"/>
                </g>
              </g>
            </g>
          </g>
        </g>
      </g>
      <g id="Raggruppa_874" data-name="Raggruppa 874">
        <path id="Tracciato_1505" data-name="Tracciato 1505" d="M237.847,411.692a2.582,2.582,0,0,0,2.516-2.2L280.1,165.915a2.634,2.634,0,0,0-2.094-3.045,2.566,2.566,0,0,0-2.944,2.166L235.325,408.61a2.634,2.634,0,0,0,2.094,3.045A2.5,2.5,0,0,0,237.847,411.692Z" fill="url(#linear-gradient)"/>
        <path id="Tracciato_1506" data-name="Tracciato 1506" d="M371.911,411.693a2.45,2.45,0,0,0,.507-.054,2.64,2.64,0,0,0,2-3.112L327.573,168.122a2.553,2.553,0,0,0-3.01-2.068,2.64,2.64,0,0,0-2,3.112l46.845,240.405A2.578,2.578,0,0,0,371.911,411.693Z" fill="url(#linear-gradient-2)"/>
        <path id="Tracciato_1507" data-name="Tracciato 1507" d="M268.169,226.109h67.909a2.644,2.644,0,0,0,0-5.285H268.169a2.644,2.644,0,0,0,0,5.285Z" fill="url(#linear-gradient-3)"/>
        <path id="Tracciato_1508" data-name="Tracciato 1508" d="M269.4,226.109h65.445a2.649,2.649,0,0,0,0-5.285H269.4a2.649,2.649,0,0,0,0,5.285Z" fill="url(#linear-gradient-4)"/>
        <path id="Tracciato_1509" data-name="Tracciato 1509" d="M268.169,270.151h67.909a2.644,2.644,0,0,0,0-5.285H268.169a2.644,2.644,0,0,0,0,5.285Z" fill="url(#linear-gradient-5)"/>
        <path id="Tracciato_1510" data-name="Tracciato 1510" d="M262,270.151h82.33a2.644,2.644,0,0,0,0-5.285H262a2.644,2.644,0,0,0,0,5.285Z" fill="url(#linear-gradient-6)"/>
        <path id="Tracciato_1511" data-name="Tracciato 1511" d="M268.169,314.192h67.909a2.644,2.644,0,0,0,0-5.285H268.169a2.644,2.644,0,0,0,0,5.285Z" fill="url(#linear-gradient-3)"/>
        <path id="Tracciato_1512" data-name="Tracciato 1512" d="M254.139,314.192h98.549a2.644,2.644,0,0,0,0-5.285H254.139a2.644,2.644,0,0,0,0,5.285Z" fill="url(#linear-gradient-8)"/>
        <path id="Tracciato_1513" data-name="Tracciato 1513" d="M268.169,358.234H360.61a2.644,2.644,0,0,0,0-5.285H268.169a2.644,2.644,0,0,0,0,5.285Z" fill="url(#linear-gradient-9)"/>
        <path id="Tracciato_1514" data-name="Tracciato 1514" d="M247.778,358.234H360.61a2.644,2.644,0,0,0,0-5.285H247.778a2.644,2.644,0,0,0,0,5.285Z" fill="url(#linear-gradient-10)"/>
      </g>
      <g id="Raggruppa_877" data-name="Raggruppa 877">
        <path id="Tracciato_1515" data-name="Tracciato 1515" d="M92.231,157.7a16.384,16.384,0,0,1-3.6,1.73c-4.255,1.11-6.672.545-10.011,4.055a14.1,14.1,0,0,0-3.894,9.038c-.2,5.167,2.355,10.882-.493,15.2-2.283,3.461-7.325,4.552-9.062,8.317-1.748,3.79.732,8.056,2.786,11.69s3.56,8.709.517,11.566c-1.232,1.158-2.943,1.622-4.427,2.433a9.734,9.734,0,0,0-5.039,9.247,8.469,8.469,0,0,0,7.176,7.42c5.383.574,6.443,1.638,9.3,6.1a8.413,8.413,0,0,0,9.031,3.347,9.906,9.906,0,0,0,6.809-7.077c.963-3.738-.115-7.88,1.377-11.44,1.144-2.728,3.54-4.83,5.3-7.153.935-1.229,4-4.51,4.1-6l1.787-27.116c.295-4.468,1.331-9.53.923-14a7.582,7.582,0,0,0-1.037-3.507c-.884-2.025-1.417-2.514-1.659-4.729-.255-2.342.254-4.33-.937-6.58a6.408,6.408,0,0,0-6.332-3.548A8.171,8.171,0,0,0,92.231,157.7Z" fill="url(#linear-gradient-11)"/>
        <path id="Tracciato_1516" data-name="Tracciato 1516" d="M159.679,136.281s-17.656,48.132-47.741,63.175c0,0,10.014,16.338,15.239,17.329,0,0,32.138-41.133,35.414-74.832Z" fill="#f4a996"/>
        <path id="Tracciato_1517" data-name="Tracciato 1517" d="M38.689,425.808l-.888,7.3c-.169,1.385-3.454,4.9-4.84,5.06-2.34.267-3.355.8-7.029.409-1.613-.17-3.2-4.481-2.714-6.027.9-2.818,2.535-7.048,4.9-9.537h8.1A2.5,2.5,0,0,1,38.689,425.808Z" fill="url(#linear-gradient-12)"/>
        <path id="Tracciato_1518" data-name="Tracciato 1518" d="M102.11,340.3l1.366,8.039s-4.576,46.36-5.391,64.9a14.535,14.535,0,0,0,2.151,8.259l7.958,12.923L87.968,422.489l-.4-2.468,3.311-4.553L86.54,363.535a15.932,15.932,0,0,1,1.813-8.814l4.184-7.859Z" fill="#f4a996"/>
        <path id="Tracciato_1519" data-name="Tracciato 1519" d="M109.526,436.3h-6.454a3.884,3.884,0,0,1-3.085-1.512c-2.012-2.614-6.181-7.715-8.174-7.848-2.684-.18-2.341,9.36-2.341,9.36h-1.5l-1.9-11.854a7.016,7.016,0,0,1,3.682-7.335h0s.614,4.536,3.94,6.543,13.535,9.193,13.535,9.193a9.194,9.194,0,0,1,2.624.07A1.707,1.707,0,0,1,109.526,436.3Z" fill="url(#linear-gradient-13)"/>
        <path id="Tracciato_1520" data-name="Tracciato 1520" d="M74.407,344.118s-26.813,50.861-31.075,62.473a111.515,111.515,0,0,0-5.812,22.217c-.09,1.433-1.872,2.808-6.787,2.808-2.536,0-3.778-1.017-4.386-2a2.866,2.866,0,0,1-.109-2.775c1.551-3.139,6.473-13.169,8.3-17.719,2.176-5.432,6.858-30.049,9.426-38.608s5.469-17.843,16.65-26.395C60.61,344.118,68.286,336.6,74.407,344.118Z" fill="#f4a996"/>
        <path id="Tracciato_1521" data-name="Tracciato 1521" d="M91.345,260.781C98.261,231.473,80.74,214.9,80.74,214.9c11.055-10.612,31.2-15.441,31.2-15.441s19.221,14.052,16.941,25.051c-1.336,6.447-13.51,38.614-13.51,38.614S104.111,268.448,91.345,260.781Z" fill="#7da2ba"/>
        <path id="Tracciato_1522" data-name="Tracciato 1522" d="M76.01,275.29c2.815-8.48,15.335-14.509,15.335-14.509,12.766,7.667,24.024,2.34,24.024,2.34s2.524,9.65.782,18.617-12.675,66.6-12.675,66.6c-17.225,3.49-43.717-3.511-43.717-3.511C70.731,325.348,73.195,283.77,76.01,275.29Z" fill="#7da2ba"/>
        <path id="Tracciato_1523" data-name="Tracciato 1523" d="M99.373,180.089,93.75,205.347c-.539,2.225,1.489,1.861,3.739,1.437,3.683-.695,8.431-2.125,10.018-4.992a2.713,2.713,0,0,0,.288-.951l2.416-17.515a3.149,3.149,0,0,0-1.842-3.307l-4.662-2.067A3.146,3.146,0,0,0,99.373,180.089Z" fill="#f4a996"/>
        <path id="Tracciato_1524" data-name="Tracciato 1524" d="M80.74,214.9s-39.247,28.079-5.02,57.585a8.847,8.847,0,0,0,3.873,2.244c1.3.387,5.13,3.288,7.074,4.8a1.333,1.333,0,0,0,1.949-.351h0a1.819,1.819,0,0,0,.1-1.744l-4.859-10.274a3.746,3.746,0,0,0-4.867-.211h0a1.849,1.849,0,0,1-2.8-.635c-2.646-5.389-7.642-21.238,12.807-39.147a2.215,2.215,0,0,0,.491-2.693C88.05,221.711,84.764,216.231,80.74,214.9Z" fill="#f4a996"/>
        <g id="Raggruppa_875" data-name="Raggruppa 875">
          <path id="Tracciato_1525" data-name="Tracciato 1525" d="M105.97,160.1s6.66,2.812,11.188,12.436,1.147,14.067-3.1,14.677-10.6.517-17.318-5.7S97.313,156.772,105.97,160.1Z" fill="#f4a996"/>
          <path id="Tracciato_1526" data-name="Tracciato 1526" d="M101.255,176.38s-5.024-14.079,7.459-14.246l2.937,2.054s4.58-7.807-2.937-11.533S92.4,152.007,89.2,162.134s-3.745,16.908,1.577,21.753,7.516-.648,7.516-.648-2.9-4.532-1.719-6.957,3.9.5,3.9.5Z" fill="url(#linear-gradient-14)"/>
          <path id="Tracciato_1527" data-name="Tracciato 1527" d="M99.855,177.949s-2.54-7.253-5.929-4.365,2.754,6.7,5.159,7.934Z" fill="#f4a996"/>
        </g>
        <g id="Raggruppa_876" data-name="Raggruppa 876">
          <path id="Tracciato_1528" data-name="Tracciato 1528" d="M161.373,145.042c.27.856-2.85,2.16-4.686-1.342-.064-1.679-1.085-8.87-.082-10.237,5.342-7.284,15.7-16.413,15.7-16.413a2.465,2.465,0,0,1,.308,3.424l-5.024,5.234c1.051,1.9,2.333,3.5,2.934,5.8a7.044,7.044,0,0,1-.7,5.182c-.882,1.589-2.086,3.654-3.223,5.271A6.953,6.953,0,0,1,161.373,145.042Z" fill="#f4a996"/>
        </g>
      </g>
      <g id="Raggruppa_882" data-name="Raggruppa 882">
        <g id="Raggruppa_878" data-name="Raggruppa 878">
          <path id="Tracciato_1529" data-name="Tracciato 1529" d="M304.486,213.692a24.172,24.172,0,0,1,.806,5.586.758.758,0,0,1-.655.734c-2.169.3-9.573,1.187-13.64,0a.752.752,0,0,1-.542-.742c.037-1.276.936-4.273,8.365-5.038Z" fill="#2fae80" fill-rule="evenodd"/>
          <path id="Tracciato_1530" data-name="Tracciato 1530" d="M291.7,164.548c-.914.6,5.983,49.034,7.655,49.386,0,0,1.911,1.776,4.861-.249-1.7-15.786-2.74-31.8-1.823-48.162Z" fill="#963715" fill-rule="evenodd"/>
          <path id="Tracciato_1531" data-name="Tracciato 1531" d="M321.056,214.682a24.172,24.172,0,0,1,.806,5.586.758.758,0,0,1-.655.734c-2.169.3-9.573,1.187-13.64,0a.752.752,0,0,1-.542-.742c.037-1.276.936-4.273,8.366-5.038Z" fill="#2fae80" fill-rule="evenodd"/>
          <path id="Tracciato_1532" data-name="Tracciato 1532" d="M308.273,165.538c-.914.6,5.984,49.034,7.655,49.386,0,0,1.911,1.776,4.861-.249-1.7-15.786-2.74-31.8-1.823-48.162Z" fill="#963715" fill-rule="evenodd"/>
          <path id="Tracciato_1533" data-name="Tracciato 1533" d="M315.895,135.151s-22.494,1.029-27.851,2.909c0,0,.66,18.289,2.859,29.527a1.124,1.124,0,0,0,.847.882c1.444.334,5.077.813,10.836-.8a1.125,1.125,0,0,0,.816-1.16l-.594-7.284a.888.888,0,0,1,.824-.947l.6-.091a.887.887,0,0,1,.948.878l1.137,7.388a1.123,1.123,0,0,0,.763,1.054,19.622,19.622,0,0,0,11.893-.126,1.121,1.121,0,0,0,.795-1.062C319.83,157.352,318.219,146.627,315.895,135.151Z" fill="#ee7d4c" fill-rule="evenodd"/>
        </g>
        <path id="Tracciato_1534" data-name="Tracciato 1534" d="M307.463,136.728s2.844,7.9,9.7,8.453l-1.517-9.015A51.766,51.766,0,0,0,307.463,136.728Z" fill-rule="evenodd" fill="url(#linear-gradient-15)"/>
        <g id="Raggruppa_880" data-name="Raggruppa 880">
          <path id="Tracciato_1535" data-name="Tracciato 1535" d="M256.577,101.7c10,2.313,22.366.9,37.736-5.254l.706,14.063c-14.419,4.125-27.943,3.892-39.842-4.243Z" fill="#f0cc68"/>
          <path id="Tracciato_1536" data-name="Tracciato 1536" d="M288.868,99.618c1.907-3.521,8.162-3.994,11.611-4.136,5.068-.21,9.213.294,12.564,4.61a25.14,25.14,0,0,1,1.507,2.246c1.958,3.169,2.6,7.835,3.636,11.4,2.046,7.052,4.057,14.118,5.889,21.229.27,1.047,3.445,10.755,2.19,11.458-2.826,9.806-33.094,6.584-42.55-4.82C284.894,124.975,285.816,107.083,288.868,99.618Z" fill="#f0cc68"/>
          <g id="Raggruppa_879" data-name="Raggruppa 879">
            <path id="Tracciato_1537" data-name="Tracciato 1537" d="M285.909,81.339s.866-2.442-1.341-2.877-.1,6.049-.1,6.049Z" fill-rule="evenodd" fill="url(#linear-gradient-16)"/>
            <path id="Tracciato_1538" data-name="Tracciato 1538" d="M303.55,87.966l.872,9.571s-5.052,2.952-9.4.371l.772-8.359Z" fill="#963715" fill-rule="evenodd"/>
            <path id="Tracciato_1539" data-name="Tracciato 1539" d="M285.06,81.034c-1.041-1.36-2.13-4.9-.446-5.542.177-.068.4-.11.476-.284a.535.535,0,0,0-.035-.4A24.36,24.36,0,0,1,284,72.2a2.5,2.5,0,0,1,.656-2.575,3.408,3.408,0,0,1,2.453-.368c-.84-.086,1.137-4.924,1.671-5.357a5.663,5.663,0,0,1,6.241-.448,3.254,3.254,0,0,1,5.859.776c1.661-.837,3.678-.475,5.413.2,2.844,1.106,3.4,3.478,3.2,6.352a3.107,3.107,0,0,1,3.6,4.543,3.4,3.4,0,0,1,2.332,2.472c.523,2.326-1.571,3.142-2.362,4.925a18.615,18.615,0,0,0-1.457,4.6c-.269,1.42-1.768,2.269-3.186,2.55-5.979,1.184-12.52-3.42-17.594-5.859-1.666-.8-3.935-1.461-5.4-2.6A2.117,2.117,0,0,1,285.06,81.034Z" fill="#28345d" fill-rule="evenodd"/>
            <path id="Tracciato_1540" data-name="Tracciato 1540" d="M288.982,73.233s-10.537,15.878.35,20.742c10.276,4.591,14.606-5.953,14.606-5.953s4.518-4.682,3-8.286S291.551,71.26,288.982,73.233Z" fill="#963715" fill-rule="evenodd"/>
            <path id="Tracciato_1541" data-name="Tracciato 1541" d="M304.965,85.521c-3.065-.971-5.219-2.705-5.893-6a1.186,1.186,0,0,0-.174-.488c-.241-.323-.718-.309-1.121-.3a4.892,4.892,0,0,1-3.132-.934,3.171,3.171,0,0,1-1.237-2.926,8.2,8.2,0,0,1-3.737-.009,2.81,2.81,0,0,1-2.092-2.775c.269-2.1,4.757-2.449,6.294-1.815,6.184,2.555,11.832,5.153,13.487,6.972S310.39,83.472,304.965,85.521Z" fill="#28345d" fill-rule="evenodd"/>
            <path id="Tracciato_1542" data-name="Tracciato 1542" d="M302.585,89.439l1.832-5.036s3.541-1.627,3.074,1.113S303.844,89.769,302.585,89.439Z" fill-rule="evenodd" fill="url(#linear-gradient-17)"/>
          </g>
        </g>
        <g id="Raggruppa_881" data-name="Raggruppa 881">
          <path id="Tracciato_1543" data-name="Tracciato 1543" d="M263.28,132.948c-.087,1.3,2.158,2.443,3.1,2.957A18.764,18.764,0,0,0,275,137.982l1.221.014c2.151.027,4.013-.705,6.085-1.254a2.3,2.3,0,0,0,1.186-.582c.594-.677-.387-2.088-.731-2.708a1.071,1.071,0,0,0-.339-.421,1.039,1.039,0,0,0-.521-.112c-1.346-.045-2.525.412-3.868.449l-2.2.06a8.439,8.439,0,0,1-1.833-.083c-1.492-.29-2.782-1.376-4.3-1.447a.433.433,0,0,0-.172.018.323.323,0,0,0-.094.469,1.187,1.187,0,0,0,.425.329,1.339,1.339,0,0,1,.732,1.086,36.838,36.838,0,0,0-8.054-1.215,10.426,10.426,0,0,0,1.4,1.581Z" fill="url(#linear-gradient-18)"/>
          <path id="Tracciato_1544" data-name="Tracciato 1544" d="M279.279,132.9c9.6-4.219,18.82-12.916,27.557-27.3,7.328-5.233,9.45,1.061,7.377,10.831-9.218,12.156-18.488,20.406-33.247,21.043A4.061,4.061,0,0,0,279.279,132.9Z" fill="#f0cc68"/>
        </g>
      </g>
      <g id="Raggruppa_883" data-name="Raggruppa 883">
        <rect id="Rettangolo_458" data-name="Rettangolo 458" width="20.317" height="308.508" rx="1.981" transform="translate(234.311 120.263)" fill="#f6a86c"/>
        <path id="Tracciato_1545" data-name="Tracciato 1545" d="M341.043,427.523a867.236,867.236,0,0,1-192.157-.029c-17.547-1.942-31.664-15.019-31.664-32.673h0c0-18.455,15.371-34.71,33.714-32.671a860.854,860.854,0,0,0,188.1-.1c18.336-1.983,33.685,14.228,33.685,32.672v.125C372.726,412.51,358.6,425.565,341.043,427.523Z" fill="#2fae80"/>
        <path id="Tracciato_1546" data-name="Tracciato 1546" d="M329.5,364.386a762.953,762.953,0,0,1-169.063-.025c-15.438-1.708-27.858-13.213-27.858-28.746h0c0-16.237,13.524-30.538,29.661-28.744a757.432,757.432,0,0,0,165.5-.088c16.133-1.745,29.637,12.518,29.637,28.745v.11C357.373,351.178,344.941,362.664,329.5,364.386Z" fill="#eb5d48"/>
        <path id="Tracciato_1547" data-name="Tracciato 1547" d="M314.932,308.62a635.7,635.7,0,0,1-140.873-.021c-12.864-1.423-23.213-11.01-23.213-23.953h0c0-13.53,11.269-25.446,24.716-23.951a631.191,631.191,0,0,0,137.9-.073c13.443-1.454,24.7,10.431,24.7,23.952v.092C338.16,297.614,327.8,307.185,314.932,308.62Z" fill="#c2ca9a"/>
        <path id="Tracciato_1548" data-name="Tracciato 1548" d="M303.341,262.04a532.1,532.1,0,0,1-117.9-.017c-10.766-1.192-19.426-9.215-19.426-20.046h0c0-11.323,9.43-21.3,20.684-20.045a528.239,528.239,0,0,0,115.409-.061c11.25-1.217,20.667,8.729,20.667,20.045v.077C322.78,252.829,314.111,260.839,303.341,262.04Z" fill="#eb5d48"/>
        <path id="Tracciato_1549" data-name="Tracciato 1549" d="M294.667,224.147a450.842,450.842,0,0,1-99.91-.015c-9.123-1.009-16.463-7.808-16.463-16.987h0c0-9.6,7.992-18.046,17.529-16.986a447.654,447.654,0,0,0,97.8-.052c9.534-1.031,17.514,7.4,17.514,16.987v.065C311.14,216.341,303.793,223.13,294.667,224.147Z" fill="#f0cc68"/>
      </g>
      <path id="Tracciato_1550" data-name="Tracciato 1550" d="M278.681,104.478a360,360,0,0,0-77.069-20.554c-7.245-1.1-14.306,2.634-16.2,9.715h0c-1.975,7.4,2.45,15.566,10.025,16.711a357.363,357.363,0,0,1,75.43,20.172c7.142,2.758,15.033-2.1,17.007-9.5l.013-.05C289.781,113.89,285.512,107.142,278.681,104.478Z" fill="#7da2ba"/>
      <path id="Tracciato_1551" data-name="Tracciato 1551" d="M271.5,133.454a370.442,370.442,0,0,1-79.462-20.593c-7.048-2.683-11.485-9.6-9.594-16.9h0c1.976-7.632,10.074-12.708,17.44-9.9a367.731,367.731,0,0,0,77.8,20.106c7.8,1.144,12.406,9.492,10.431,17.119l-.013.052C286.21,130.639,278.968,134.525,271.5,133.454Z" fill="#7da2ba"/>
    </g>
    <g id="Raggruppa_996" data-name="Raggruppa 996" transform="translate(533.912 4798.425)">
      <g id="Raggruppa_995" data-name="Raggruppa 995">
        <path id="Tracciato_1787" data-name="Tracciato 1787" d="M127.351,80.186a4.907,4.907,0,0,1,4.682-5.157,4.978,4.978,0,0,1,5.381,4.488,4.907,4.907,0,0,1-4.682,5.157A4.978,4.978,0,0,1,127.351,80.186Z" fill="#f0cc68"/>
        <g id="Raggruppa_987" data-name="Raggruppa 987">
          <path id="Tracciato_1788" data-name="Tracciato 1788" d="M135.9,93.836a31.171,31.171,0,0,0-.982-4.255,1.158,1.158,0,0,0-2.226.441,33.175,33.175,0,0,0,.95,4.576,1.217,1.217,0,0,0,1.526.7,1.165,1.165,0,0,0,.732-1.463Z" fill="#f0cc68"/>
        </g>
        <g id="Raggruppa_988" data-name="Raggruppa 988">
          <path id="Tracciato_1789" data-name="Tracciato 1789" d="M144.548,87.848a49.967,49.967,0,0,1-4.671-3.232,1.126,1.126,0,0,0-1.514,1.666,21.915,21.915,0,0,0,5.1,3.673,1.264,1.264,0,0,0,1.643-.532,1.175,1.175,0,0,0-.555-1.575Z" fill="#f0cc68"/>
        </g>
        <g id="Raggruppa_989" data-name="Raggruppa 989">
          <path id="Tracciato_1790" data-name="Tracciato 1790" d="M141.382,79.195a.808.808,0,0,0-.22,1.115c.565.982,2,.934,3.019.9a11.338,11.338,0,0,0,3.133-.571,1.177,1.177,0,0,0-.811-2.209C143.585,79.385,142.481,78.349,141.382,79.195Z" fill="#f0cc68"/>
        </g>
        <g id="Raggruppa_990" data-name="Raggruppa 990">
          <path id="Tracciato_1791" data-name="Tracciato 1791" d="M139.776,69.8c-1.468,2.058-2.668,2.753-2.481,3.886a1.015,1.015,0,0,0,1.323.833c.788-.171,1.218-.972,1.691-1.535.453-.539.9-1.079,1.3-1.654a1.168,1.168,0,0,0-.119-1.645,1.262,1.262,0,0,0-1.716.115Z" fill="#f0cc68"/>
        </g>
        <g id="Raggruppa_991" data-name="Raggruppa 991">
          <path id="Tracciato_1792" data-name="Tracciato 1792" d="M134.057,69.439a5.075,5.075,0,0,0-1.181-2.281,1.071,1.071,0,0,0-1.721.56,4.733,4.733,0,0,0,.6,2.5,1.257,1.257,0,0,0,1.558.716,1.175,1.175,0,0,0,.747-1.493Z" fill="#f0cc68"/>
        </g>
        <g id="Raggruppa_992" data-name="Raggruppa 992">
          <path id="Tracciato_1793" data-name="Tracciato 1793" d="M127.879,72.458c-2.116-1.541-2.546-1.975-3.378-1.891-.487.049-1.034.5-.928,1.022.2.974.789,1.239,2.735,2.6A1.267,1.267,0,0,0,128,74.076a1.123,1.123,0,0,0-.117-1.618Z" fill="#f0cc68"/>
        </g>
        <g id="Raggruppa_993" data-name="Raggruppa 993">
          <path id="Tracciato_1794" data-name="Tracciato 1794" d="M119.379,79.52a1.057,1.057,0,0,0,.4,1.919c.866.109,1.2-.025,5.4-.76a1.172,1.172,0,1,0-.169-2.335C120.652,79.1,120.216,79.1,119.379,79.52Z" fill="#f0cc68"/>
        </g>
        <g id="Raggruppa_994" data-name="Raggruppa 994">
          <path id="Tracciato_1795" data-name="Tracciato 1795" d="M125.961,86.107c-2.3,2.136-2.64,1.758-3.549,3.064-.416.6.27,1.549.994,1.422a4.424,4.424,0,0,0,2.39-1.233c.7-.534,1.376-1.107,2.022-1.7a1.155,1.155,0,0,0-.12-1.665,1.3,1.3,0,0,0-1.737.116Z" fill="#f0cc68"/>
        </g>
      </g>
      <path id="Tracciato_1796" data-name="Tracciato 1796" d="M108.312,89.515l-2.982,6.523-7.568-.132.036-1.9,6.247.109,3.081-6.739,8.452,1.476,1.472-4.722,1.851.7-1.932,6.2Z" fill="#f0cc68"/>
    </g>
    <circle id="Ellisse_88" data-name="Ellisse 88" cx="9.859" cy="9.859" r="9.859" transform="translate(756.861 4834.578)" fill="#f0cc68"/>
    <circle id="Ellisse_94" data-name="Ellisse 94" cx="7.242" cy="7.242" r="7.242" transform="translate(915.41 5141.778)" fill="#364c85"/>
    <circle id="Ellisse_97" data-name="Ellisse 97" cx="4.93" cy="4.93" r="4.93" transform="translate(668.566 5048.804)" fill="#eb5d48"/>
  </g>
</svg>
