<svg xmlns="http://www.w3.org/2000/svg" width="157.427" height="157.428" viewBox="0 0 157.427 157.428">
  <g id="Raggruppa_352" data-name="Raggruppa 352" transform="matrix(0.966, 0.259, -0.259, 0.966, -257.387, -329.047)">
    <circle id="Ellisse_29" data-name="Ellisse 29" cx="64.27" cy="64.27" r="64.27" transform="translate(365.915 242.608)" fill="#41556e"/>
    <g id="Raggruppa_351" data-name="Raggruppa 351" transform="translate(381.394 261.731)">
      <g id="Raggruppa_350" data-name="Raggruppa 350">
        <path id="Tracciato_547" data-name="Tracciato 547" d="M433.9,262.8a5.12,5.12,0,0,1,6.9-2.407,4.788,4.788,0,0,1,2.579,2.872l-1.468.587a3.416,3.416,0,0,0-1.792-2.05,3.6,3.6,0,0,0-3.129,6.484,3.418,3.418,0,0,0,2.719.127l.454,1.514a4.78,4.78,0,0,1-3.853-.232A5.117,5.117,0,0,1,433.9,262.8Z" transform="translate(-370.069 -258.833)" fill="#fff"/>
        <path id="Tracciato_548" data-name="Tracciato 548" d="M443.169,267.391a5.169,5.169,0,1,1,.3,7.3A5.125,5.125,0,0,1,443.169,267.391Zm6.371,5.862a3.49,3.49,0,1,0-5.007.29A3.485,3.485,0,0,0,449.54,273.252Z" transform="translate(-368.655 -257.853)" fill="#fff"/>
        <path id="Tracciato_549" data-name="Tracciato 549" d="M454.373,277.266l-5.619,3.164-.811-1.438,8.905-5.016-2.33,9.236,5.62-3.164.809,1.438-8.905,5.016Z" transform="translate(-367.621 -256.464)" fill="#fff"/>
        <path id="Tracciato_550" data-name="Tracciato 550" d="M461.036,287.549l-.633-2.527,1.573-.395,1.67,6.671-1.574.395-.637-2.541-8.231,2.06-.4-1.6Z" transform="translate(-366.805 -254.676)" fill="#fff"/>
        <path id="Tracciato_551" data-name="Tracciato 551" d="M464.2,297.7l-10.143,5.107-.028-1.78,2.232-1.09-.069-4.229-2.267-1.017-.028-1.766Zm-6.488-1.3.046,2.805,2.968-1.445Z" transform="translate(-366.622 -253.282)" fill="#fff"/>
        <path id="Tracciato_552" data-name="Tracciato 552" d="M461.68,306.03l.561-2.545,1.584.35-1.48,6.713-1.585-.349.564-2.557-8.284-1.828.355-1.612Z" transform="translate(-366.765 -251.51)" fill="#fff"/>
        <path id="Tracciato_553" data-name="Tracciato 553" d="M458.843,314.819l1.119-2.351,1.465.7-2.952,6.206-1.465-.7,1.125-2.365-7.658-3.643.709-1.49Z" transform="translate(-367.196 -250.218)" fill="#fff"/>
        <path id="Tracciato_554" data-name="Tracciato 554" d="M455.123,325.251l-11.062-2.545,1.114-1.389,2.413.586,2.646-3.3-1.1-2.23,1.1-1.377Zm-4.158-5.145-1.755,2.187,3.2.783Z" transform="translate(-368.273 -249.576)" fill="#fff"/>
        <path id="Tracciato_555" data-name="Tracciato 555" d="M447.2,326a5.122,5.122,0,0,1-1.138,7.22,4.784,4.784,0,0,1-3.753.917l.176-1.573a3.406,3.406,0,0,0,2.653-.61,3.6,3.6,0,0,0-4.237-5.826,3.416,3.416,0,0,0-1.4,2.338l-1.55-.316a4.778,4.778,0,0,1,2.026-3.288A5.122,5.122,0,0,1,447.2,326Z" transform="translate(-369.299 -248.089)" fill="#fff"/>
        <path id="Tracciato_556" data-name="Tracciato 556" d="M439.351,336.751l-1.508.672-4.112-9.224,1.507-.673Z" transform="translate(-370.008 -247.473)" fill="#fff"/>
        <path id="Tracciato_557" data-name="Tracciato 557" d="M423.619,334.587a1.937,1.937,0,1,1-1.969-1.9A1.939,1.939,0,0,1,423.619,334.587Z" transform="translate(-372.356 -246.607)" fill="#fff"/>
        <path id="Tracciato_558" data-name="Tracciato 558" d="M408.821,333.749a5.121,5.121,0,0,1-6.935,2.29,4.787,4.787,0,0,1-2.53-2.915l1.477-.563a3.415,3.415,0,0,0,1.757,2.08,3.6,3.6,0,0,0,3.237-6.429,3.415,3.415,0,0,0-2.717-.174l-.427-1.521a4.786,4.786,0,0,1,3.848.3A5.118,5.118,0,0,1,408.821,333.749Z" transform="translate(-375.779 -247.688)" fill="#fff"/>
        <path id="Tracciato_559" data-name="Tracciato 559" d="M399.662,328.985a5.165,5.165,0,1,1-.174-7.3A5.121,5.121,0,0,1,399.662,328.985Zm-6.262-5.972a3.489,3.489,0,1,0,5.008-.2A3.484,3.484,0,0,0,393.4,323.013Z" transform="translate(-377.227 -248.698)" fill="#fff"/>
        <path id="Tracciato_560" data-name="Tracciato 560" d="M389.017,319.238l5.674-3.068.786,1.453-9,4.862,2.491-9.2-5.675,3.067-.786-1.453,9-4.862Z" transform="translate(-378.608 -250.409)" fill="#fff"/>
        <path id="Tracciato_561" data-name="Tracciato 561" d="M382.227,308.05l.587,2.537-1.58.367-1.55-6.7,1.58-.364.59,2.55,8.264-1.911.373,1.607Z" transform="translate(-379.083 -251.441)" fill="#fff"/>
        <path id="Tracciato_562" data-name="Tracciato 562" d="M379.169,298.045l10.3-4.774-.029,1.78-2.267,1.018-.069,4.228,2.233,1.091-.029,1.765Zm6.442,1.516.046-2.805-3.012,1.347Z" transform="translate(-379.169 -253.225)" fill="#fff"/>
        <path id="Tracciato_563" data-name="Tracciato 563" d="M381.913,289.558l-.606,2.534-1.578-.378,1.6-6.687,1.579.377-.61,2.548,8.252,1.975-.384,1.607Z" transform="translate(-379.075 -254.609)" fill="#fff"/>
        <path id="Tracciato_564" data-name="Tracciato 564" d="M384.923,280.994l-1.161,2.331-1.453-.723,3.065-6.155,1.452.724-1.167,2.344,7.594,3.782-.736,1.477Z" transform="translate(-378.642 -256.049)" fill="#fff"/>
        <path id="Tracciato_565" data-name="Tracciato 565" d="M388.832,270.919l11.016,2.741-1.138,1.368-2.4-.63-2.7,3.25,1.055,2.248-1.129,1.357Zm4.065,5.217,1.794-2.155-3.19-.841Z" transform="translate(-377.547 -256.978)" fill="#fff"/>
        <path id="Tracciato_566" data-name="Tracciato 566" d="M396.668,270.307a5.118,5.118,0,0,1,1.267-7.193,4.782,4.782,0,0,1,3.767-.849l-.2,1.568a3.413,3.413,0,0,0-2.664.562,3.6,3.6,0,0,0,4.13,5.9,3.408,3.408,0,0,0,1.439-2.311l1.544.343a4.786,4.786,0,0,1-2.085,3.249A5.118,5.118,0,0,1,396.668,270.307Z" transform="translate(-376.391 -258.446)" fill="#fff"/>
        <path id="Tracciato_567" data-name="Tracciato 567" d="M404.037,259.627l1.518-.645,3.949,9.3-1.519.645Z" transform="translate(-374.993 -258.982)" fill="#fff"/>
        <path id="Tracciato_568" data-name="Tracciato 568" d="M419.563,261.182a1.936,1.936,0,1,1,1.9,1.968A1.938,1.938,0,0,1,419.563,261.182Z" transform="translate(-372.387 -258.932)" fill="#fff"/>
      </g>
    </g>
  </g>
</svg>
