<svg id="Raggruppa_354" data-name="Raggruppa 354" xmlns="http://www.w3.org/2000/svg" width="48.799" height="48.799" viewBox="0 0 48.799 48.799">
  <path id="Tracciato_539" data-name="Tracciato 539" d="M589.728,244.138a5.086,5.086,0,0,0-2.916-2.916,8.5,8.5,0,0,0-2.852-.529c-1.62-.074-2.106-.089-6.208-.089s-4.588.016-6.208.089a8.5,8.5,0,0,0-2.852.529,5.086,5.086,0,0,0-2.916,2.916,8.492,8.492,0,0,0-.529,2.852c-.074,1.62-.089,2.106-.089,6.208s.016,4.588.089,6.208a8.492,8.492,0,0,0,.529,2.852,5.086,5.086,0,0,0,2.916,2.916,8.5,8.5,0,0,0,2.852.529c1.62.074,2.106.09,6.208.09s4.588-.016,6.208-.09a8.5,8.5,0,0,0,2.852-.529,5.086,5.086,0,0,0,2.916-2.916,8.506,8.506,0,0,0,.529-2.852c.074-1.62.089-2.106.089-6.208s-.016-4.588-.089-6.208A8.506,8.506,0,0,0,589.728,244.138Zm-11.976,16.949a7.889,7.889,0,1,1,7.889-7.889A7.889,7.889,0,0,1,577.752,261.087Zm8.2-14.246A1.844,1.844,0,1,1,587.8,245,1.843,1.843,0,0,1,585.953,246.841Z" transform="translate(-553.353 -228.799)" fill="#fff"/>
  <ellipse id="Ellisse_28" data-name="Ellisse 28" cx="5.121" cy="5.121" rx="5.121" ry="5.121" transform="translate(19.278 19.278)" fill="#fff"/>
  <path id="Tracciato_540" data-name="Tracciato 540" d="M556.9,207.946a24.4,24.4,0,1,0,24.4,24.4A24.4,24.4,0,0,0,556.9,207.946Zm15.27,30.733a11.279,11.279,0,0,1-.714,3.729,7.855,7.855,0,0,1-4.493,4.493,11.278,11.278,0,0,1-3.729.714c-1.638.075-2.162.093-6.334.093s-4.7-.018-6.334-.093a11.278,11.278,0,0,1-3.729-.714,7.855,7.855,0,0,1-4.493-4.493,11.279,11.279,0,0,1-.714-3.729c-.075-1.639-.092-2.162-.092-6.334s.018-4.7.092-6.334a11.277,11.277,0,0,1,.714-3.729,7.855,7.855,0,0,1,4.493-4.493,11.27,11.27,0,0,1,3.729-.714c1.638-.075,2.162-.093,6.334-.093s4.7.018,6.334.093a11.27,11.27,0,0,1,3.729.714,7.855,7.855,0,0,1,4.493,4.493,11.277,11.277,0,0,1,.714,3.729c.075,1.639.092,2.162.092,6.334S572.244,237.04,572.169,238.679Z" transform="translate(-532.5 -207.946)" fill="#fff"/>
</svg>
