<svg xmlns="http://www.w3.org/2000/svg" width="98.236" height="105.684" viewBox="0 0 98.236 105.684">
  <g id="Raggruppa_684" data-name="Raggruppa 684" transform="translate(-296.764 -3124)">
    <path id="Tracciato_569" data-name="Tracciato 569" d="M92.109,100.471a7.613,7.613,0,0,1-.8,3.818,3.988,3.988,0,0,0-.2.468,5.2,5.2,0,0,0,5.209,6.858l18.031-.907-.907-18.031a5.2,5.2,0,0,1,6.858-5.209,3.585,3.585,0,0,1,.465.2,7.655,7.655,0,1,0-.575-13.361,4.259,4.259,0,0,1-.453.239A5.289,5.289,0,0,1,112.3,69.95l-.9-17.873L70.317,54.141A17.573,17.573,0,0,0,53.651,72.573l2.067,41.083,17.971-.9a5.233,5.233,0,0,0,4.532-7.381,4.141,4.141,0,0,0-.241-.446,7.655,7.655,0,1,1,14.129-4.453Z" transform="translate(222.719 3195.593) rotate(-49)" fill="#f9c1c4"/>
    <circle id="Ellisse_30" data-name="Ellisse 30" cx="12" cy="12" r="12" transform="translate(296.764 3124)" fill="#41556e"/>
  </g>
</svg>
